<svg xmlns="http://www.w3.org/2000/svg" xmlns:xlink="http://www.w3.org/1999/xlink" width="512" height="512" preserveAspectRatio="xMidYMid meet" viewBox="0 0 512 512" style="-ms-transform: rotate(360deg); -webkit-transform: rotate(360deg); transform: rotate(360deg);"><rect x="32" y="80" width="448" height="256" rx="16" ry="16" transform="rotate(180 256 208)" fill="none" stroke="black" stroke-linejoin="round" stroke-width="32"/><path fill="none" stroke="black" stroke-linecap="round" stroke-linejoin="round" stroke-width="32" d="M64 384h384"/><path fill="none" stroke="black" stroke-linecap="round" stroke-linejoin="round" stroke-width="32" d="M96 432h320"/><circle cx="256" cy="208" r="80" fill="none" stroke="black" stroke-linecap="round" stroke-linejoin="round" stroke-width="32"/><path d="M480 160a80 80 0 0 1-80-80" fill="none" stroke="black" stroke-linecap="round" stroke-linejoin="round" stroke-width="32"/><path d="M32 160a80 80 0 0 0 80-80" fill="none" stroke="black" stroke-linecap="round" stroke-linejoin="round" stroke-width="32"/><path d="M480 256a80 80 0 0 0-80 80" fill="none" stroke="black" stroke-linecap="round" stroke-linejoin="round" stroke-width="32"/><path d="M32 256a80 80 0 0 1 80 80" fill="none" stroke="black" stroke-linecap="round" stroke-linejoin="round" stroke-width="32"/><rect x="0" y="0" width="512" height="512" fill="rgba(0, 0, 0, 0)" /></svg>